<svg width="21" height="22" viewBox="0 0 21 22" fill="none" xmlns="http://www.w3.org/2000/svg">
<path d="M19.7917 8.33282C19.9285 8.33282 20.0639 8.30592 20.1903 8.25362C20.3167 8.20132 20.4316 8.12452 20.5284 8.02782C20.6251 7.93112 20.7017 7.81623 20.7542 7.68983C20.8064 7.56343 20.8333 7.42796 20.8333 7.29116V4.16616C20.8334 3.94759 20.7647 3.73455 20.6369 3.55725C20.5091 3.37995 20.3286 3.2474 20.1213 3.17841L10.7463 0.0534075C10.5324 -0.0178025 10.301 -0.0178025 10.087 0.0534075L0.71207 3.17841C0.50468 3.2474 0.32428 3.37995 0.19647 3.55725C0.0686501 3.73455 -8.99117e-05 3.94759 8.82636e-08 4.16616V7.29116C-2.99117e-05 7.42796 0.0268901 7.56343 0.0792201 7.68983C0.13156 7.81623 0.20829 7.93112 0.30502 8.02782C0.40175 8.12452 0.5166 8.20132 0.643 8.25362C0.76939 8.30592 0.90487 8.33282 1.04167 8.33282H2.08334V15.8164C1.47577 16.0304 0.94934 16.4273 0.57632 16.9524C0.2033 17.4776 0.00198009 18.1053 8.82636e-08 18.7495V20.8328C-2.99117e-05 20.9696 0.0268901 21.1051 0.0792201 21.2315C0.13156 21.3579 0.20829 21.4727 0.30502 21.5695C0.40175 21.6662 0.5166 21.7429 0.643 21.7953C0.76939 21.8476 0.90487 21.8745 1.04167 21.8745H19.7917C19.9285 21.8745 20.0639 21.8476 20.1903 21.7953C20.3167 21.7429 20.4316 21.6662 20.5284 21.5695C20.6251 21.4727 20.7017 21.3579 20.7542 21.2315C20.8064 21.1051 20.8333 20.9696 20.8333 20.8328V18.7495C20.8313 18.1053 20.63 17.4776 20.257 16.9524C19.8839 16.4273 19.3575 16.0304 18.75 15.8164V8.33282H19.7917ZM18.75 19.7911H2.08334V18.7495C2.08361 18.4733 2.19345 18.2085 2.38874 18.0132C2.58403 17.8179 2.84882 17.7081 3.125 17.7078H17.7083C17.9845 17.7081 18.2493 17.8179 18.4445 18.0132C18.6398 18.2085 18.7498 18.4733 18.75 18.7495V19.7911ZM4.16667 15.6245V8.33282H6.25V15.6245H4.16667ZM8.33335 15.6245V8.33282H12.5V15.6245H8.33335ZM14.5833 15.6245V8.33282H16.6667V15.6245H14.5833ZM2.08334 6.24949V4.91689L10.4166 2.13876L18.75 4.91689V6.24949H2.08334Z" fill="#146EB0"/>
</svg>
