<svg fill="none" height="18" viewBox="0 0 14 18" width="14" xmlns="http://www.w3.org/2000/svg"><path
        d="m7.00001.666672c-1.76811 0-3.4638.702378-4.71405 1.952618-1.25024 1.25025-1.952616 2.94594-1.952616 4.71405 0 4.49996 5.874996 9.58336 6.124996 9.79996.15095.1291.34304.2001.54167.2001s.39072-.071.54167-.2001c.29166-.2166 6.12502-5.3 6.12502-9.79996 0-1.76811-.7024-3.4638-1.9526-4.71405-1.2503-1.25024-2.94598-1.952618-4.71409-1.952618zm0 14.708328c-1.775-1.6667-5-5.2583-5-8.04166 0-1.32608.52678-2.59785 1.46447-3.53554.93768-.93768 2.20945-1.46446 3.53553-1.46446s2.59785.52678 3.53549 1.46446c.9377.93769 1.4645 2.20946 1.4645 3.53554 0 2.78336-3.22499 6.38336-4.99999 8.04166zm0-11.37499c-.65927 0-1.30374.19549-1.8519.56176s-.97541.88687-1.2277 1.49596c-.25229.60908-.3183 1.27931-.18968 1.92591.12861.6466.44608 1.24055.91226 1.70672.46617.46614 1.06012.78364 1.70672.91224s1.31682.0626 1.92591-.1897 1.12968-.6795 1.49595-1.22766c.36623-.54816.56173-1.19263.56173-1.8519 0-.88406-.35115-1.7319-.97627-2.35702-.62512-.62513-1.47296-.97631-2.35702-.97631zm0 5c-.32964 0-.65187-.09775-.92595-.28089-.27408-.18313-.4877-.44343-.61385-.74798-.12615-.30454-.15915-.63965-.09484-.96295s.22304-.62027.45613-.85336.53006-.39182.85336-.45613.65841-.03131.96296.09484c.30454.12615.56484.33977.74797.61385.18314.27408.28089.59631.28089.92595 0 .44203-.1756.86595-.48816 1.17851s-.73648.48816-1.17851.48816z" fill="#ffffff"/></svg>
